<svg xmlns="http://www.w3.org/2000/svg" viewBox="0 0 498.24 402.69"><defs><style>.cls-1{fill:#ef3430;}.cls-2{fill:#f2f0f0;}.cls-3{fill:#04b24e;}.cls-4{fill:#ddd;}.cls-34,.cls-4{opacity:0.8;}.cls-5{fill:#eaeaea;opacity:0.9;}.cls-6{fill:#fffffc;}.cls-21,.cls-25,.cls-7{fill:#fff;}.cls-16,.cls-24,.cls-26,.cls-27,.cls-28,.cls-29,.cls-30,.cls-8,.cls-9{fill:none;}.cls-8{stroke:#3981ea;stroke-width:4px;}.cls-19,.cls-26,.cls-27,.cls-29,.cls-8{stroke-miterlimit:10;}.cls-21,.cls-24,.cls-9{stroke:#2a1e17;}.cls-16,.cls-21,.cls-24,.cls-25,.cls-28,.cls-30,.cls-9{stroke-linecap:round;stroke-linejoin:round;}.cls-10{fill:#3981ea;}.cls-11{fill:#2a1e17;}.cls-12{fill:#f9865f;}.cls-13{fill:#2a1e33;}.cls-14{fill:#ff8a66;}.cls-15{fill:#ffcd5f;}.cls-16{stroke:#2a1e33;}.cls-17,.cls-19{fill:#ffc92d;}.cls-18{fill:#c6cbcb;}.cls-19{stroke:#000;}.cls-20{fill:#ffe1c0;}.cls-22{fill:#00cd5e;}.cls-23{fill:#fad8b0;}.cls-24{stroke-width:0.67px;}.cls-25{stroke:#ffc92d;}.cls-26{stroke:#00cd5e;stroke-width:2px;}.cls-27{stroke:#ef3430;}.cls-28{stroke:#ff6d66;}.cls-29{stroke:#fad8b0;}.cls-30{stroke:#a0c6f4;}.cls-31{fill:#27263c;}.cls-32{fill:#c3cce2;}.cls-33{fill:#8abae2;}.cls-35{fill:#303030;}</style></defs><g id="Layer_2" data-name="Layer 2"><g id="OBJECTS"><rect class="cls-1" x="464.67" y="153.78" width="31.53" height="31.53" rx="6.97"></rect><path class="cls-2" d="M475.22,165.05a4.5,4.5,0,1,0,4.5,4.49A4.49,4.49,0,0,0,475.22,165.05Zm0,7.4a2.91,2.91,0,1,1,2.91-2.91A2.9,2.9,0,0,1,475.22,172.45Z"></path><path class="cls-2" d="M485.68,165.05a4.5,4.5,0,1,0,4.5,4.49A4.49,4.49,0,0,0,485.68,165.05Zm0,7.4a2.91,2.91,0,1,1,2.91-2.91A2.9,2.9,0,0,1,485.68,172.45Z"></path><rect class="cls-2" x="478.74" y="168.83" width="3.05" height="1.43"></rect><rect class="cls-2" x="467.94" y="170.56" width="4.53" height="1.64" transform="translate(31.15 411.58) rotate(-48.71)"></rect><rect class="cls-2" x="488.45" y="167.08" width="4.53" height="1.64" transform="matrix(-0.63, 0.78, -0.78, -0.63, 930.52, -106.99)"></rect><rect class="cls-3" x="305.49" y="369.33" width="33.36" height="33.36" rx="7.37"></rect><rect class="cls-4" x="313.5" y="383.54" width="11.25" height="11.25" rx="0.8"></rect><path class="cls-5" d="M324.74,394l-5.82-4.74a.06.06,0,0,1,0-.11h5.78Z"></path><path class="cls-6" d="M330.18,389.16H318.9V377.22h11.59a.36.36,0,0,1,.35.36V388.5A.66.66,0,0,1,330.18,389.16Z"></path><polygon class="cls-7" points="318.9 377.22 324.75 383.19 324.75 389.16 318.9 389.16 318.9 377.22"></polygon><path class="cls-8" d="M263.07,44.36c-2.35.78-21.54,52.84-21.54,52.84s45.56,4.65,83.32,41.12l36-44.62s-6-20.26-45-37.79C281.73,40.53,263.07,44.36,263.07,44.36Z"></path><path class="cls-9" d="M248.22,101.25s44.8,4.52,72.41,29.86"></path><polygon class="cls-10" points="286.9 99.06 303.62 66.56 320.8 100.45 286.9 99.06"></polygon><polygon class="cls-9" points="290.15 98.6 306.87 66.1 324.05 99.99 290.15 98.6"></polygon><path class="cls-9" d="M274.47,42s50.23,4.53,81.45,41.64"></path><path class="cls-11" d="M300.13,186c-2.76-2-4.57-3.39-4.57-3.39.77-1,12.86-13.9,19.86-24.27C315.42,158.32,301.26,186.81,300.13,186Z"></path><path class="cls-9" d="M128.85,92.11c1.34,2.24,1.94,1.35,5.83,1s9.42,2.54,11.37,7.33,1.34,5.53.3,6.13-8.53,1.49-8.83,3"></path><polygon class="cls-12" points="229.62 335.57 226.13 329.68 213.77 350.29 217.01 352.78 229.62 335.57"></polygon><path class="cls-12" d="M147.52,284.47s-6.4-10.42-3.65-15.52l20.43,2.19Z"></path><path d="M147.52,284.47l1.23,2.81L145,302a5.06,5.06,0,0,0,1.59,5.07h0l18.69-27.63a6.42,6.42,0,0,0-.95-8.31l-4.17-3.88Z"></path><path class="cls-13" d="M137.52,109.61c5.85-.14,13.27-.51,11.79-5s-7.05-15.58-19.66-12.24c0,0-4.45,3.71,1.12,10.39S137.52,109.61,137.52,109.61Z"></path><path class="cls-10" d="M167.15,271.38s-10-29.49-1.54-42.45c7-10.69,29.77,6.7,32.9,9l16.31-29.45s-3.77-5.28-13-10.45-47.44-20.65-65.38,7.67c-6.64,10.46-6.74,55.37,6,72.58Z"></path><path class="cls-9" d="M167.15,271.38s-10-29.49-1.54-42.45c7-10.69,29.77,6.7,32.9,9"></path><path class="cls-10" d="M214.82,208.52c-7.42,7.8-29.42,45.84-34.36,64-6.62,24.31-4.13,44.48,32.23,84l17.58-25.6s-12.36-18.77-10.05-36.46c3.33-25.59,21.54-50.4,30.76-66.13Z"></path><polygon class="cls-11" points="217.61 211.82 246.84 234.77 255.58 221.48 217.61 211.82"></polygon><path class="cls-14" d="M385.53,187.7q6.84,1.45,10.42,5.21c2.39,2.49,1.3,3.8.43,4.56s-4.23-.11-7.16-2.72S385.53,187.7,385.53,187.7Z"></path><path class="cls-12" d="M295.56,182.59c.77-1,12.86-13.9,19.86-24.27,0,0,21.15,23.7,23.44,24.46.86.29,6,.22,12.48.15,10.89-.11,25.36-.22,28.56,1.38,5.09,2.55,8.15,3.83,9.43,7.39s1.77,5.9-1.28,6.12c-3.57.26-5.86-4.33-5.86-4.33a71.09,71.09,0,0,1-10.45,4.59s-27.11,10.52-45.23,5.43C321.57,202.12,295.56,182.59,295.56,182.59Z"></path><path class="cls-12" d="M131.24,87.92c-2.33.89-3.74,2-2.39,4.19s1.94,1.35,5.83,1,9.42,2.54,11.37,7.33,1.34,5.53.3,6.13-8.53,1.49-8.83,3,3,5.91,9.91,5.61l1.65-.3s14.47,14.14,16.56,16.23,17.49,12.52,26,14.64c6.44,1.61,19.49-.47,27.34-2,3.81-.74,6.39-1.35,6.39-1.35s-5.89-10.61-7.08-26.91c0,0-14.09,2.26-23.45,4.31,0,0-21.84-12.17-32.46-17.56,0,0-9.27-11.37-13.61-12.86S134.38,86.72,131.24,87.92Z"></path><path class="cls-11" d="M219,143.79c3.81-.74,6.39-1.35,6.39-1.35s-7.12-9-8.32-25.29c0,0-3.22,3.47-2.22,12.71C216.06,141.46,219,143.79,219,143.79Z"></path><path class="cls-15" d="M216.68,115.33s.2,19.92,5.53,28.23l1.92-.76S199,172.23,190.84,191.46c-1.33,3.14,52.23,37.36,60.14,36.88,0,0,26.09-39.83,35-51.64l9.59,7.43s18.81-19,19.83-25.81c0,0-18.18-22.12-33-28.59s-28.16-17.57-44.13-17.27C224.43,112.72,216.68,115.33,216.68,115.33Z"></path><polygon class="cls-11" points="295.59 184.13 286 176.7 287.53 172.54 295.59 184.13"></polygon><path class="cls-12" d="M310.18,105.35c-1.68,5.22-6.53,20.33-11.94,22.2s-11-.48-11-.48l-5.76,3c-.65,1.93-5.19,3.59-11.07,3.82-4.35.16-7-5.42-5.71-9.46.59-1.86,2.8-11,2.8-11s4.66-17.16,9-20.71,8.32-7,19.77-2.42C313.73,97.33,310.18,105.35,310.18,105.35Z"></path><path class="cls-13" d="M275.42,106.09c-.77,3.21-4.11,9.63-6.29,8.47s-2.95-4.1-1.41-9.75S270.54,86.34,274.9,84s6.29.38,6.29.38-1.92-9.37,3.72-10.65c0,0,1.93-.9,1.16,5.52a8.58,8.58,0,0,1,9.23-5.13c7.06.77,9.5,10.65,9.5,10.65a3.55,3.55,0,0,1,3.72-2.7c3.21,0,8.08,4.75,6.93,10,0,0,8.21-2.57,12.57,4s3.85,13.72-6.67,16.55c-11,3-10.91-9.88-12.58-11.55s-3.46-3.59-9.62-1.28-12.57-4.49-12.57-4.49-1,8.21-2.05,9-3.08,1.79-2.57-2.06,1.15-3.46.77-4.49-2.12-4.26-5.77-1.41C272.85,99.55,275.42,106.09,275.42,106.09Z"></path><path class="cls-16" d="M277.16,107.53c-2.44-2.06-4.14-5.68-2-9.3s5.68-4.11,6.76-2.74,1.49,3.68.48,6.42"></path><path d="M217,352.78l1.23,2.82-3.78,14.72a5.06,5.06,0,0,0,1.59,5.07h0l18.69-27.63a6.41,6.41,0,0,0-1-8.31l-4.17-3.88Z"></path><path class="cls-16" d="M281.19,84.41s-1.43-4.65-5.72-5.88"></path><line class="cls-9" x1="190.25" y1="190.05" x2="242.03" y2="117.72"></line><path class="cls-9" d="M263.38,122.78c-1.87,2.42-2.72,12.86,5.86,13.54a23.19,23.19,0,0,0,14.07-3.09"></path><path class="cls-9" d="M148.74,89.42s5.92,7.83,6.85,10.62"></path><path class="cls-9" d="M370.36,194.45s4,3.25,11.83-1c2.86-1.53.82-5.15-2.79-4.24a17.05,17.05,0,0,1-7.91-.45"></path><path class="cls-9" d="M386.88,188.15s3.8,4.43,3.69,7"></path><path class="cls-9" d="M331.05,187.67s3.43-4.57,7.81-4.89"></path><path class="cls-9" d="M186.39,127.23s2-6.24,8.42-7.39"></path><path class="cls-9" d="M203.78,221.9l-7.65,14.65s-25.24,42.71-16.68,70.31"></path><path class="cls-9" d="M226.14,270.91,251,228.34s32.55-47.21,35.88-53.88l11.49-21.25"></path><path class="cls-9" d="M193.72,194.59s44.16,32.19,57.26,33.75"></path><path class="cls-9" d="M216.68,115.33s0,20.21,5.41,28.49"></path><path class="cls-9" d="M314,155.11c-1.39,8.33-19.83,25.82-19.83,25.82"></path><circle class="cls-11" cx="176.44" cy="256.22" r="2.62"></circle><polygon class="cls-9" points="422.48 312.57 421.03 302.54 429.58 308.23 425.11 309.2 422.48 312.57"></polygon><path class="cls-9" d="M138.74,141.33c-16.22-14.3-43,21.37,55,134.91,56.55,65.49,101,71.37,107,48.58,10.8-40.88-28.2-51.21-13.69-35.2,21.1,23.28,81.12,28.2,125.84,6.47,44.13-21.44,17-54.73,14.27-56.67"></path><circle class="cls-11" cx="413.63" cy="295.89" r="2.62"></circle><line class="cls-9" x1="375.47" y1="317.29" x2="453.2" y2="273.48"></line><circle class="cls-11" cx="140.35" cy="143.45" r="2.62"></circle><circle class="cls-1" cx="207.22" cy="89.31" r="5.63"></circle><circle class="cls-10" cx="105.13" cy="48.87" r="2.47"></circle><circle class="cls-17" cx="436.53" cy="351.11" r="2.47"></circle><path class="cls-13" d="M392.34,239.41l-26.59-12.48a2.75,2.75,0,0,1,.06-5l49.47-21.77a2.76,2.76,0,0,1,2.2,0l34,14.59Z"></path><path class="cls-18" d="M390.69,198.4c.07,11,1.65,41,1.65,41l59.11-24.69L450.13,173a3.59,3.59,0,0,0-5.08-3.15L394.15,193A5.91,5.91,0,0,0,390.69,198.4Z"></path><path class="cls-9" d="M392.34,239.41l59.11-24.69L450.13,173s-.4-4.56-5.08-3.15"></path><line class="cls-9" x1="420.95" y1="209.4" x2="424.94" y2="199.97"></line><line class="cls-9" x1="424.94" y1="209.4" x2="428.93" y2="199.97"></line><circle class="cls-1" cx="115.79" cy="309.83" r="2.47"></circle><circle class="cls-1" cx="324.32" cy="322.08" r="3.44"></circle><path class="cls-19" d="M141.42,346.5a73.46,73.46,0,0,0,31.23,6.7,1.4,1.4,0,0,1,1.4,1.58l-2.16,17.13a1.39,1.39,0,0,1-1.14,1.21c-4.37.82-22,3.24-35.22-7.95a1.4,1.4,0,0,1-.43-1.43l4.36-16.33A1.4,1.4,0,0,1,141.42,346.5Z"></path><path class="cls-19" d="M143,351.54s7.63,10.71,10.35,12.24,17.39-7.21,17.39-7.21"></path><line class="cls-19" x1="160.51" y1="362.29" x2="168.52" y2="370.52"></line><line class="cls-19" x1="149.38" y1="360.7" x2="140.01" y2="363.25"></line><rect class="cls-20" x="377.72" y="143.9" width="8.95" height="8.95"></rect><polygon class="cls-10" points="378.93 264.6 381.59 269.21 384.25 273.82 378.93 273.82 373.62 273.82 376.27 269.21 378.93 264.6"></polygon><path class="cls-9" d="M163.88,60.52l.69-20.91c-.07-2,.72-2.57,1.93-2.84,5.68-1.26,22.95-5.1,41.73.45,2.43.71,2.35,2,2.31,3.16l-.67,19.93a2.7,2.7,0,0,1-3.29,2.28,145.8,145.8,0,0,0-20.51-1,116.66,116.66,0,0,0-19.69,1.59C164.52,63.55,163.82,62.16,163.88,60.52Z"></path><path class="cls-9" d="M170.2,57.47l10.93-12.8,12.1,11.94C189.06,55.25,170.2,57.47,170.2,57.47Z"></path><polyline class="cls-9" points="187.83 50.59 196.67 43.52 204.12 48.84 204.4 57.15 193.23 56.61"></polyline><ellipse class="cls-9" cx="172.82" cy="43.51" rx="1.83" ry="2.15" transform="translate(112.14 211.08) rotate(-84.23)"></ellipse><path class="cls-9" d="M375.27,332.23l7.34,13.54c.77,1.21.49,1.9-.17,2.52-3.14,2.91-12.68,11.77-26.68,15.23-1.8.44-2.23-.4-2.64-1.15l-7-12.91a2,2,0,0,1,1.24-2.67,106.66,106.66,0,0,0,13.4-7,84.34,84.34,0,0,0,11.91-8.33C373.74,330.54,374.7,331.17,375.27,332.23Z"></path><path class="cls-9" d="M372.39,336.52l-2.18,12.19-12.13-3.09C361.24,344.93,372.39,336.52,372.39,336.52Z"></path><polyline class="cls-9" points="363.75 347.44 360.76 355.22 354.06 354.61 350.79 349.43 358.08 345.62"></polyline><ellipse class="cls-9" cx="375.92" cy="346.36" rx="1.58" ry="1.34" transform="translate(-109.96 187.62) rotate(-24.56)"></ellipse><path class="cls-21" d="M339.57,101.05l29.8,22.8a1.48,1.48,0,0,0,2.08-.29l4.49-6.1a1.46,1.46,0,0,0-.26-2L346.31,91.93a1.49,1.49,0,0,0-2.12.29L339.27,99A1.49,1.49,0,0,0,339.57,101.05Z"></path><polygon class="cls-1" points="341.78 100.03 349 105.1 353.27 100.01 346.04 93.98 341.78 100.03"></polygon><polygon class="cls-17" points="351.72 107.08 358.96 112.81 362.84 108.04 355.55 102.14 351.72 107.08"></polygon><polygon class="cls-10" points="361.39 115.02 368.62 120.09 372.06 115.67 365.22 109.94 361.39 115.02"></polygon><path class="cls-21" d="M399,69.16l6.79,57.06a2.26,2.26,0,0,0,2.55,2l11.49-1.58a2.25,2.25,0,0,0,1.94-2.45l-5.57-57.34a2.26,2.26,0,0,0-2.57-2l-12.72,1.86A2.25,2.25,0,0,0,399,69.16Z"></path><polygon class="cls-1" points="402.5 70.5 404.65 83.84 414.79 83.09 413.68 68.72 402.5 70.5"></polygon><polygon class="cls-22" points="405.38 88.94 406.81 103.01 416.19 102.17 414.89 87.87 405.38 88.94"></polygon><polygon class="cls-17" points="406.99 108.04 409.14 121.38 417.67 120.44 416.64 106.81 406.99 108.04"></polygon><path class="cls-21" d="M384.2,81.31,403,136.58a1.8,1.8,0,0,0,2.31,1.11l11.77-4.24a1.8,1.8,0,0,0,1.11-2.23L400.53,75.41a1.79,1.79,0,0,0-2.33-1.14l-12.92,4.78A1.8,1.8,0,0,0,384.2,81.31Z"></path><polygon class="cls-10" points="388.02 82.32 392.9 94.92 402.66 92.08 398.59 78.25 388.02 82.32"></polygon><polygon class="cls-1" points="394.68 99.76 399 113.22 408 110.45 403.76 96.73 394.68 99.76"></polygon><polygon class="cls-23" points="400.22 118.1 405.1 130.71 413.25 128.01 409.41 114.89 400.22 118.1"></polygon><rect class="cls-10" x="142.08" y="151.12" width="105.91" height="23.81" rx="5.48"></rect><rect class="cls-7" x="153.36" y="158.13" width="55.38" height="3.62" rx="1.81"></rect><line class="cls-9" x1="153.88" y1="166.44" x2="241.87" y2="166.44"></line><path class="cls-22" d="M105.74,106.68H108a1.7,1.7,0,0,1,1.7,1.7v3.32a1.7,1.7,0,0,1-1.7,1.7h-2.22a0,0,0,0,1,0,0v-6.72A0,0,0,0,1,105.74,106.68Z" transform="translate(116.32 -43.69) rotate(47.59)"></path><rect class="cls-9" x="95.86" y="99.82" width="12.43" height="8.57" rx="0.98" transform="translate(94.05 249.69) rotate(-132.41)"></rect><rect class="cls-1" x="79.13" y="138.26" width="8.87" height="8.1"></rect><polyline class="cls-9" points="79.13 133.05 79.13 138.26 73.83 138.26"></polyline><rect class="cls-17" x="371.38" y="46.79" width="8.87" height="8.1"></rect><polyline class="cls-17" points="371.38 41.58 371.38 46.79 366.08 46.79"></polyline><path class="cls-9" d="M131.3,96.86c-92-38.13-162.77,35.29,10.59,147.72,13.65,8.85,34.58,12,34.58,12"></path><circle class="cls-11" cx="46.71" cy="99.42" r="2.62"></circle><polygon class="cls-9" points="30.03 85.03 32.9 82.27 39.49 86.05 42.81 96.28 32.68 92.04 30.03 85.03"></polygon><polygon class="cls-9" points="32.9 82.27 30.03 85.03 28.42 83.08 31.17 80.44 32.9 82.27"></polygon><line class="cls-9" x1="42.81" y1="96.28" x2="36.22" y2="89.04"></line><path class="cls-21" d="M58.75,279.86l7.15,36.83a1.47,1.47,0,0,0,1.75,1.16l7.41-1.57a1.48,1.48,0,0,0,1.15-1.69l-6.37-37.08a1.48,1.48,0,0,0-1.77-1.19l-8.19,1.82A1.48,1.48,0,0,0,58.75,279.86Z"></path><polygon class="cls-1" points="61.08 280.56 63.12 289.15 69.68 288.18 68.28 278.87 61.08 280.56"></polygon><polygon class="cls-17" points="63.84 292.44 65.44 301.53 71.51 300.54 69.98 291.28 63.84 292.44"></polygon><polygon class="cls-10" points="65.8 304.8 67.83 313.38 73.34 312.36 72.03 303.53 65.8 304.8"></polygon><polygon class="cls-9" points="263.44 372.17 293.64 364.09 294.8 367.36 264.25 375.29 263.44 372.17"></polygon><line class="cls-9" x1="259.24" y1="367.95" x2="260.12" y2="370.69"></line><line class="cls-9" x1="258.39" y1="369.74" x2="260.94" y2="368.86"></line><line class="cls-9" x1="257.78" y1="378.42" x2="259.42" y2="383.6"></line><line class="cls-9" x1="256.38" y1="381.7" x2="260.92" y2="380.26"></line><line class="cls-9" x1="250.87" y1="369.88" x2="253.02" y2="376.74"></line><line class="cls-9" x1="248.74" y1="374.15" x2="255.1" y2="372.12"></line><polygon class="cls-24" points="43.17 44.01 24.06 35.38 24.85 33.19 44.08 42.05 43.17 44.01"></polygon><line class="cls-24" x1="43.56" y1="47.98" x2="44.27" y2="46.19"></line><line class="cls-24" x1="44.76" y1="47.42" x2="43.06" y2="46.79"></line><line class="cls-24" x1="48.76" y1="43.17" x2="50.11" y2="39.79"></line><line class="cls-24" x1="50.88" y1="42.06" x2="47.92" y2="40.88"></line><line class="cls-24" x1="48.72" y1="50.53" x2="50.52" y2="46.07"></line><line class="cls-24" x1="51.64" y1="49.22" x2="47.48" y2="47.58"></line><path class="cls-17" d="M114.61,205.45c-13.47-9.7-26.71-24.77-20.9-40.26,0,0,9.29-6.19,24,1.55l14.71,7.74Z"></path><path class="cls-25" d="M93.71,165.19c-5.81,15.49,7.43,30.56,20.9,40.26,8.09,5.82,13.75,8.42,22.46,11.62l-27.88,55S75.9,258.11,70.48,231,93.71,165.19,93.71,165.19Z"></path><path class="cls-9" d="M86.17,187.69a33.23,33.23,0,0,0,17.22,23.88"></path><line class="cls-9" x1="111.72" y1="217.13" x2="127.27" y2="225.46"></line><path class="cls-9" d="M88.39,209.91s5,11.1,21.11,18.32"></path><path class="cls-9" d="M75.62,211.57s.55,11.67,8.33,15.55"></path><path class="cls-9" d="M93.39,171S92,186,114.61,205.45"></path><path class="cls-9" d="M101.72,173.8s7.22-.55,17.78,7.22"></path><path class="cls-9" d="M67.77,221.63c-.47,7.43.46,34.35,39.46,51.53"></path><path class="cls-22" d="M316.8,206.65,300.26,239.8s11.22,4.13,2.45,17c0,0,20.73,8.6,34.3-13.74S316.8,206.65,316.8,206.65Z"></path><path class="cls-26" d="M302.71,256.79s20.73,8.6,34.3-13.74l-29.92,51.19s-20.72,31.45-56.41,3.94l32.43-53.73Z"></path><path class="cls-9" d="M300.26,239.8s12.33,4.36,2.45,17"></path><path class="cls-9" d="M282.73,243.3s16.81,15.4,26.11,15.29,20.21-2.32,26.65-13.41"></path><path class="cls-9" d="M284.79,263.22s11.54,10.24,24.44,6.95"></path><path class="cls-9" d="M296.91,278.52s6,4.54,14.51.25"></path><path class="cls-9" d="M269.07,284.84s14,13.88,35.94,4.72"></path><path class="cls-9" d="M276.67,271.29s5.69,4.07,9.26,5.37"></path><path class="cls-9" d="M319.64,216.27s12.75,4.17,14.28,21"></path><path class="cls-9" d="M326.05,237.06s5.87,9.08-4.05,18.17"></path><path class="cls-9" d="M251.86,300.72s32,27.41,55.25-4.65"></path><line class="cls-27" x1="20.78" y1="196.3" x2="28.24" y2="196.3"></line><line class="cls-28" x1="436.53" y1="106.53" x2="443.99" y2="106.53"></line><line class="cls-29" x1="236.38" y1="55.33" x2="243.85" y2="55.33"></line><line class="cls-29" x1="450.78" y1="145.24" x2="458.12" y2="146.56"></line><line class="cls-30" x1="157.6" y1="331.47" x2="165.07" y2="331.47"></line><circle class="cls-22" cx="466.86" cy="238.43" r="2.47"></circle><circle class="cls-22" cx="2.47" cy="119.81" r="2.47"></circle><circle class="cls-11" cx="495.62" cy="397.67" r="2.62"></circle><rect class="cls-17" x="7.88" y="248.21" width="32.34" height="32.34" rx="7.15"></rect><path class="cls-31" d="M31,267.76s-.72,3.16-5,3.16c-1.28,0-6.15-.34-6.39-5a13,13,0,0,0,6.29,1.52c3.83,0,7.7-2.15,7.7-6.25s-3.91-6.42-7.7-6.42A9,9,0,0,0,17,260.84a21.52,21.52,0,0,1-2.4-2.39l-1.86,2.17a15.46,15.46,0,0,0,3.66,3.48c0,6.39,3.49,9.89,9.59,9.89,4.4,0,7-2.24,8-4.67Zm-5.13-9.82c3.11,0,4.52,1.68,4.52,3.24s-1.18,3.08-4.52,3.08a13,13,0,0,1-6.23-1.53C19.62,261.44,21,257.94,25.85,257.94Z"></path><rect class="cls-10" x="120.35" width="33.44" height="33.44" rx="7.39"></rect><path class="cls-32" d="M126.73,15.13h0a2.25,2.25,0,0,1,3.18,0l5.9,5.9a2.26,2.26,0,0,1,0,3.19h0a2.25,2.25,0,0,1-3.18,0l-5.9-5.9A2.26,2.26,0,0,1,126.73,15.13Z"></path><path class="cls-7" d="M126.73,18.31h0a2.25,2.25,0,0,1,0-3.18l5.9-5.91a2.26,2.26,0,0,1,3.18,0h0a2.26,2.26,0,0,1,0,3.19l-5.9,5.9A2.25,2.25,0,0,1,126.73,18.31Z"></path><circle class="cls-33" cx="128.37" cy="16.66" r="1.98"></circle><path class="cls-32" d="M147.4,18.31h0a2.25,2.25,0,0,1-3.18,0l-5.9-5.9a2.26,2.26,0,0,1,0-3.19h0a2.26,2.26,0,0,1,3.18,0l5.9,5.91A2.25,2.25,0,0,1,147.4,18.31Z"></path><path class="cls-7" d="M147.4,15.13h0a2.26,2.26,0,0,1,0,3.19l-5.9,5.9a2.25,2.25,0,0,1-3.18,0h0a2.26,2.26,0,0,1,0-3.19l5.9-5.9A2.25,2.25,0,0,1,147.4,15.13Z"></path><circle class="cls-10" cx="145.78" cy="16.77" r="1.98"></circle><rect class="cls-18" x="413.63" y="194.59" width="26.63" height="20.55"></rect><g class="cls-34"><path class="cls-35" d="M424.53,200.57a2.66,2.66,0,0,0,0-2,2.62,2.62,0,0,0-1.38,1.38,2.55,2.55,0,0,0,0,1.94A2.14,2.14,0,0,0,424.53,200.57Z"></path><path class="cls-35" d="M427.26,204.34a2.49,2.49,0,0,1-.09-1.22,2.77,2.77,0,0,1,.62-1.31,2.73,2.73,0,0,0-2.4-.49c-.89.18-1.53,1.05-2,1.19s-1.28-.16-2,.08a2.86,2.86,0,0,0-1.86,2.15,3.43,3.43,0,0,0-.07,1,7,7,0,0,0,2.57,4.54c.68.54,1.48,1.14,2.21.88s.83-.77,1.68-1,1.24.12,2-.13,1-1.09,1.27-1.92a6.58,6.58,0,0,0,.27-1.86A2.61,2.61,0,0,1,427.26,204.34Z"></path></g></g></g></svg>